<mxfile host="app.diagrams.net" modified="2022-07-15T10:07:00.332Z" agent="5.0 (Macintosh; Intel Mac OS X 10_15_7) AppleWebKit/605.1.15 (KHTML, like Gecko) Version/15.5 Safari/605.1.15" etag="qv0fkLth7HHhK8LZGIlk" version="20.1.1" type="github">
  <diagram id="-1jy5hLoVj57MFFHEsiL" name="Page-1">
    <mxGraphModel dx="1326" dy="738" grid="1" gridSize="10" guides="1" tooltips="1" connect="1" arrows="1" fold="1" page="1" pageScale="1" pageWidth="1169" pageHeight="827" math="0" shadow="0">
      <root>
        <mxCell id="0" />
        <mxCell id="1" parent="0" />
        <mxCell id="CufjEUIWF9jbsMjmMuLT-2" value="&lt;h1&gt;Current MfN DOI Workflow&lt;/h1&gt;&lt;p&gt;TOTAL STEPS: 22 (2 Optional). STEPS 18-20 need to be repeated for each record related to the DOI&lt;/p&gt;&lt;p&gt;&lt;br&gt;&lt;/p&gt;" style="text;html=1;strokeColor=none;fillColor=none;spacing=5;spacingTop=-20;whiteSpace=wrap;overflow=hidden;rounded=0;" parent="1" vertex="1">
          <mxGeometry x="790" y="40" width="350" height="80" as="geometry" />
        </mxCell>
        <mxCell id="CufjEUIWF9jbsMjmMuLT-3" value="" style="endArrow=none;dashed=1;html=1;dashPattern=1 3;strokeWidth=2;rounded=0;strokeColor=#00CC00;" parent="1" edge="1">
          <mxGeometry width="50" height="50" relative="1" as="geometry">
            <mxPoint x="40" y="200" as="sourcePoint" />
            <mxPoint x="1140" y="200" as="targetPoint" />
          </mxGeometry>
        </mxCell>
        <mxCell id="CufjEUIWF9jbsMjmMuLT-4" value="" style="endArrow=none;dashed=1;html=1;dashPattern=1 3;strokeWidth=2;rounded=0;strokeColor=#00CC00;" parent="1" edge="1">
          <mxGeometry width="50" height="50" relative="1" as="geometry">
            <mxPoint x="40" y="800" as="sourcePoint" />
            <mxPoint x="40" y="200" as="targetPoint" />
          </mxGeometry>
        </mxCell>
        <mxCell id="CufjEUIWF9jbsMjmMuLT-5" value="" style="endArrow=none;dashed=1;html=1;dashPattern=1 3;strokeWidth=2;rounded=0;strokeColor=#00CC00;" parent="1" edge="1">
          <mxGeometry width="50" height="50" relative="1" as="geometry">
            <mxPoint x="1140" y="800" as="sourcePoint" />
            <mxPoint x="1140" y="200" as="targetPoint" />
          </mxGeometry>
        </mxCell>
        <mxCell id="CufjEUIWF9jbsMjmMuLT-6" value="" style="endArrow=none;dashed=1;html=1;dashPattern=1 3;strokeWidth=2;rounded=0;strokeColor=#00CC00;" parent="1" edge="1">
          <mxGeometry width="50" height="50" relative="1" as="geometry">
            <mxPoint x="40" y="800" as="sourcePoint" />
            <mxPoint x="1140" y="800" as="targetPoint" />
          </mxGeometry>
        </mxCell>
        <mxCell id="CufjEUIWF9jbsMjmMuLT-10" value="" style="endArrow=none;html=1;rounded=0;strokeColor=#3333FF;" parent="1" edge="1">
          <mxGeometry width="50" height="50" relative="1" as="geometry">
            <mxPoint x="40" y="40" as="sourcePoint" />
            <mxPoint x="600" y="40" as="targetPoint" />
          </mxGeometry>
        </mxCell>
        <mxCell id="CufjEUIWF9jbsMjmMuLT-11" value="" style="endArrow=none;html=1;rounded=0;strokeColor=#3333FF;" parent="1" edge="1">
          <mxGeometry width="50" height="50" relative="1" as="geometry">
            <mxPoint x="40" y="160" as="sourcePoint" />
            <mxPoint x="40" y="40" as="targetPoint" />
          </mxGeometry>
        </mxCell>
        <mxCell id="CufjEUIWF9jbsMjmMuLT-12" value="" style="endArrow=none;html=1;rounded=0;strokeColor=#3333FF;" parent="1" edge="1">
          <mxGeometry width="50" height="50" relative="1" as="geometry">
            <mxPoint x="40" y="160" as="sourcePoint" />
            <mxPoint x="600" y="160" as="targetPoint" />
          </mxGeometry>
        </mxCell>
        <mxCell id="CufjEUIWF9jbsMjmMuLT-13" value="" style="endArrow=none;html=1;rounded=0;strokeColor=#3333FF;" parent="1" edge="1">
          <mxGeometry width="50" height="50" relative="1" as="geometry">
            <mxPoint x="600" y="160" as="sourcePoint" />
            <mxPoint x="600" y="40" as="targetPoint" />
          </mxGeometry>
        </mxCell>
        <mxCell id="CufjEUIWF9jbsMjmMuLT-14" value="DataCite" style="text;html=1;strokeColor=#3333FF;fillColor=none;align=center;verticalAlign=middle;whiteSpace=wrap;rounded=0;" parent="1" vertex="1">
          <mxGeometry x="40" y="10" width="60" height="30" as="geometry" />
        </mxCell>
        <mxCell id="CufjEUIWF9jbsMjmMuLT-15" value="MfN" style="text;html=1;strokeColor=none;fillColor=none;align=center;verticalAlign=middle;whiteSpace=wrap;rounded=0;" parent="1" vertex="1">
          <mxGeometry x="1080" y="170" width="60" height="30" as="geometry" />
        </mxCell>
        <mxCell id="CufjEUIWF9jbsMjmMuLT-17" value="" style="endArrow=none;dashed=1;html=1;dashPattern=1 3;strokeWidth=2;rounded=0;" parent="1" edge="1">
          <mxGeometry width="50" height="50" relative="1" as="geometry">
            <mxPoint x="80" y="240" as="sourcePoint" />
            <mxPoint x="480" y="240" as="targetPoint" />
          </mxGeometry>
        </mxCell>
        <mxCell id="CufjEUIWF9jbsMjmMuLT-18" value="" style="endArrow=none;dashed=1;html=1;dashPattern=1 3;strokeWidth=2;rounded=0;" parent="1" edge="1">
          <mxGeometry width="50" height="50" relative="1" as="geometry">
            <mxPoint x="80" y="360" as="sourcePoint" />
            <mxPoint x="80" y="240" as="targetPoint" />
          </mxGeometry>
        </mxCell>
        <mxCell id="CufjEUIWF9jbsMjmMuLT-19" value="" style="endArrow=none;dashed=1;html=1;dashPattern=1 3;strokeWidth=2;rounded=0;" parent="1" edge="1">
          <mxGeometry width="50" height="50" relative="1" as="geometry">
            <mxPoint x="480" y="360" as="sourcePoint" />
            <mxPoint x="480" y="240" as="targetPoint" />
            <Array as="points" />
          </mxGeometry>
        </mxCell>
        <mxCell id="CufjEUIWF9jbsMjmMuLT-20" value="" style="endArrow=none;dashed=1;html=1;dashPattern=1 3;strokeWidth=2;rounded=0;" parent="1" edge="1">
          <mxGeometry width="50" height="50" relative="1" as="geometry">
            <mxPoint x="80" y="360" as="sourcePoint" />
            <mxPoint x="480" y="360" as="targetPoint" />
            <Array as="points">
              <mxPoint x="210" y="360" />
            </Array>
          </mxGeometry>
        </mxCell>
        <mxCell id="CufjEUIWF9jbsMjmMuLT-23" value="&lt;span style=&quot;caret-color: rgb(0, 0, 0); color: rgb(0, 0, 0); font-family: Helvetica; font-size: 12px; font-style: normal; font-variant-caps: normal; font-weight: 400; letter-spacing: normal; text-align: center; text-indent: 0px; text-transform: none; word-spacing: 0px; -webkit-text-stroke-width: 0px; background-color: rgb(248, 249, 250); text-decoration: none; float: none; display: inline !important;&quot;&gt;MfN Survey Form&lt;/span&gt;" style="text;whiteSpace=wrap;html=1;" parent="1" vertex="1">
          <mxGeometry x="80" y="210" width="130" height="40" as="geometry" />
        </mxCell>
        <mxCell id="CufjEUIWF9jbsMjmMuLT-24" value="" style="endArrow=none;dashed=1;html=1;dashPattern=1 3;strokeWidth=2;rounded=0;" parent="1" edge="1">
          <mxGeometry width="50" height="50" relative="1" as="geometry">
            <mxPoint x="80" y="420" as="sourcePoint" />
            <mxPoint x="600" y="420" as="targetPoint" />
          </mxGeometry>
        </mxCell>
        <mxCell id="CufjEUIWF9jbsMjmMuLT-25" value="" style="endArrow=none;dashed=1;html=1;dashPattern=1 3;strokeWidth=2;rounded=0;" parent="1" edge="1">
          <mxGeometry width="50" height="50" relative="1" as="geometry">
            <mxPoint x="80" y="420" as="sourcePoint" />
            <mxPoint x="80" y="760" as="targetPoint" />
          </mxGeometry>
        </mxCell>
        <mxCell id="CufjEUIWF9jbsMjmMuLT-26" value="" style="endArrow=none;dashed=1;html=1;dashPattern=1 3;strokeWidth=2;rounded=0;" parent="1" edge="1">
          <mxGeometry width="50" height="50" relative="1" as="geometry">
            <mxPoint x="80" y="760" as="sourcePoint" />
            <mxPoint x="600" y="760" as="targetPoint" />
          </mxGeometry>
        </mxCell>
        <mxCell id="CufjEUIWF9jbsMjmMuLT-27" value="" style="endArrow=none;dashed=1;html=1;dashPattern=1 3;strokeWidth=2;rounded=0;" parent="1" edge="1">
          <mxGeometry width="50" height="50" relative="1" as="geometry">
            <mxPoint x="600" y="420" as="sourcePoint" />
            <mxPoint x="600" y="760" as="targetPoint" />
          </mxGeometry>
        </mxCell>
        <mxCell id="CufjEUIWF9jbsMjmMuLT-28" value="MfN Generic Data Module (GDM)" style="text;html=1;strokeColor=none;fillColor=none;align=center;verticalAlign=middle;whiteSpace=wrap;rounded=0;" parent="1" vertex="1">
          <mxGeometry x="80" y="390" width="190" height="30" as="geometry" />
        </mxCell>
        <mxCell id="CufjEUIWF9jbsMjmMuLT-29" value="" style="endArrow=none;dashed=1;html=1;dashPattern=1 3;strokeWidth=2;rounded=0;" parent="1" edge="1">
          <mxGeometry width="50" height="50" relative="1" as="geometry">
            <mxPoint x="540" y="240" as="sourcePoint" />
            <mxPoint x="1100" y="240" as="targetPoint" />
          </mxGeometry>
        </mxCell>
        <mxCell id="CufjEUIWF9jbsMjmMuLT-30" value="" style="endArrow=none;dashed=1;html=1;dashPattern=1 3;strokeWidth=2;rounded=0;" parent="1" edge="1">
          <mxGeometry width="50" height="50" relative="1" as="geometry">
            <mxPoint x="540" y="360" as="sourcePoint" />
            <mxPoint x="1100" y="360" as="targetPoint" />
          </mxGeometry>
        </mxCell>
        <mxCell id="CufjEUIWF9jbsMjmMuLT-31" value="" style="endArrow=none;dashed=1;html=1;dashPattern=1 3;strokeWidth=2;rounded=0;" parent="1" edge="1">
          <mxGeometry width="50" height="50" relative="1" as="geometry">
            <mxPoint x="540" y="360" as="sourcePoint" />
            <mxPoint x="540" y="240" as="targetPoint" />
          </mxGeometry>
        </mxCell>
        <mxCell id="CufjEUIWF9jbsMjmMuLT-32" value="" style="endArrow=none;dashed=1;html=1;dashPattern=1 3;strokeWidth=2;rounded=0;" parent="1" edge="1">
          <mxGeometry width="50" height="50" relative="1" as="geometry">
            <mxPoint x="1100" y="360" as="sourcePoint" />
            <mxPoint x="1100" y="240" as="targetPoint" />
          </mxGeometry>
        </mxCell>
        <mxCell id="CufjEUIWF9jbsMjmMuLT-33" value="&lt;span style=&quot;caret-color: rgb(0, 0, 0); color: rgb(0, 0, 0); font-family: Helvetica; font-size: 12px; font-style: normal; font-variant-caps: normal; font-weight: 400; letter-spacing: normal; text-align: center; text-indent: 0px; text-transform: none; word-spacing: 0px; -webkit-text-stroke-width: 0px; background-color: rgb(248, 249, 250); text-decoration: none; float: none; display: inline !important;&quot;&gt;MfN EasyDB&lt;/span&gt;" style="text;whiteSpace=wrap;html=1;" parent="1" vertex="1">
          <mxGeometry x="540" y="210" width="130" height="40" as="geometry" />
        </mxCell>
        <mxCell id="CufjEUIWF9jbsMjmMuLT-36" value="1. DOI request" style="text;html=1;strokeColor=none;fillColor=none;align=center;verticalAlign=middle;whiteSpace=wrap;rounded=0;" parent="1" vertex="1">
          <mxGeometry x="60" y="260" width="140" height="30" as="geometry" />
        </mxCell>
        <mxCell id="CufjEUIWF9jbsMjmMuLT-37" value="2. DOI TEAM check request" style="text;html=1;strokeColor=none;fillColor=none;align=center;verticalAlign=middle;whiteSpace=wrap;rounded=0;" parent="1" vertex="1">
          <mxGeometry x="80" y="290" width="170" height="30" as="geometry" />
        </mxCell>
        <mxCell id="CufjEUIWF9jbsMjmMuLT-41" value="3. DOI TEAM set DOI status" style="text;html=1;strokeColor=none;fillColor=none;align=center;verticalAlign=middle;whiteSpace=wrap;rounded=0;" parent="1" vertex="1">
          <mxGeometry x="81" y="320" width="169" height="30" as="geometry" />
        </mxCell>
        <mxCell id="CufjEUIWF9jbsMjmMuLT-42" value="LOG-IN as DOI_Service" style="text;html=1;strokeColor=none;fillColor=none;align=center;verticalAlign=middle;whiteSpace=wrap;rounded=0;" parent="1" vertex="1">
          <mxGeometry x="210" y="210" width="150" height="30" as="geometry" />
        </mxCell>
        <mxCell id="CufjEUIWF9jbsMjmMuLT-43" value="LOG-IN as DOI_Service" style="text;html=1;strokeColor=none;fillColor=none;align=center;verticalAlign=middle;whiteSpace=wrap;rounded=0;" parent="1" vertex="1">
          <mxGeometry x="270" y="390" width="150" height="30" as="geometry" />
        </mxCell>
        <mxCell id="CufjEUIWF9jbsMjmMuLT-44" value="LOG-IN as DOI_Service" style="text;html=1;strokeColor=none;fillColor=none;align=center;verticalAlign=middle;whiteSpace=wrap;rounded=0;" parent="1" vertex="1">
          <mxGeometry x="110" y="10" width="150" height="30" as="geometry" />
        </mxCell>
        <mxCell id="CufjEUIWF9jbsMjmMuLT-45" value="LOG-IN with individual account" style="text;html=1;strokeColor=none;fillColor=none;align=center;verticalAlign=middle;whiteSpace=wrap;rounded=0;" parent="1" vertex="1">
          <mxGeometry x="650" y="210" width="210" height="30" as="geometry" />
        </mxCell>
        <mxCell id="CufjEUIWF9jbsMjmMuLT-46" value="4. DOI TEAM creates new DOI" style="text;html=1;strokeColor=none;fillColor=none;align=center;verticalAlign=left;whiteSpace=wrap;rounded=0;" parent="1" vertex="1">
          <mxGeometry x="70" y="50" width="190" height="30" as="geometry" />
        </mxCell>
        <mxCell id="CufjEUIWF9jbsMjmMuLT-47" value="5. If necessary, DOI TEAM modifies DOI (version, hierarchical structures, languages)" style="text;html=1;strokeColor=none;fillColor=none;align=center;verticalAlign=left;whiteSpace=wrap;rounded=0;" parent="1" vertex="1">
          <mxGeometry x="80" y="90" width="459" height="30" as="geometry" />
        </mxCell>
        <mxCell id="CufjEUIWF9jbsMjmMuLT-48" value="6. DOI added to survey form" style="text;html=1;strokeColor=none;fillColor=none;align=center;verticalAlign=left;whiteSpace=wrap;rounded=0;" parent="1" vertex="1">
          <mxGeometry x="270" y="250" width="170" height="30" as="geometry" />
        </mxCell>
        <mxCell id="5RYXw5K6E_C5ybIzZq72-2" value="7. Check DOI Submission ID" style="text;html=1;strokeColor=none;fillColor=none;align=center;verticalAlign=middle;whiteSpace=wrap;rounded=0;" vertex="1" parent="1">
          <mxGeometry x="270" y="290" width="170" height="30" as="geometry" />
        </mxCell>
        <mxCell id="5RYXw5K6E_C5ybIzZq72-3" value="8. Metadata transfer to GDM" style="text;html=1;strokeColor=none;fillColor=none;align=center;verticalAlign=left;whiteSpace=wrap;rounded=0;" vertex="1" parent="1">
          <mxGeometry x="270" y="320" width="170" height="20" as="geometry" />
        </mxCell>
        <mxCell id="5RYXw5K6E_C5ybIzZq72-7" value="9. Go to the automatically generated landing page (url generated using DOI)&amp;nbsp;" style="text;html=1;strokeColor=none;fillColor=none;align=center;verticalAlign=left;whiteSpace=wrap;rounded=0;" vertex="1" parent="1">
          <mxGeometry x="100" y="440" width="430" height="20" as="geometry" />
        </mxCell>
        <mxCell id="5RYXw5K6E_C5ybIzZq72-8" value="10. Generate XML from landing page&amp;nbsp;" style="text;html=1;strokeColor=none;fillColor=none;align=center;verticalAlign=left;whiteSpace=wrap;rounded=0;" vertex="1" parent="1">
          <mxGeometry x="104.75" y="480" width="205.5" height="20" as="geometry" />
        </mxCell>
        <mxCell id="5RYXw5K6E_C5ybIzZq72-9" value="11. Add the XML generated to the DOI metadata field" style="text;html=1;strokeColor=none;fillColor=none;align=center;verticalAlign=left;whiteSpace=wrap;rounded=0;" vertex="1" parent="1">
          <mxGeometry x="70" y="120" width="300" height="30" as="geometry" />
        </mxCell>
        <mxCell id="5RYXw5K6E_C5ybIzZq72-10" value="12. Add records for the newly generated DOI to db" style="text;html=1;strokeColor=none;fillColor=none;align=center;verticalAlign=left;whiteSpace=wrap;rounded=0;" vertex="1" parent="1">
          <mxGeometry x="539" y="240" width="281" height="30" as="geometry" />
        </mxCell>
        <mxCell id="5RYXw5K6E_C5ybIzZq72-11" value="13. Add tags, references, &amp;nbsp;product &amp;nbsp;URI for new records" style="text;html=1;strokeColor=none;fillColor=none;align=center;verticalAlign=left;whiteSpace=wrap;rounded=0;" vertex="1" parent="1">
          <mxGeometry x="539" y="270" width="311" height="30" as="geometry" />
        </mxCell>
        <mxCell id="5RYXw5K6E_C5ybIzZq72-12" value="14. Create folder for &amp;nbsp;records related to new DOI" style="text;html=1;strokeColor=none;fillColor=none;align=center;verticalAlign=left;whiteSpace=wrap;rounded=0;" vertex="1" parent="1">
          <mxGeometry x="520" y="300" width="310" height="30" as="geometry" />
        </mxCell>
        <mxCell id="5RYXw5K6E_C5ybIzZq72-13" value="15. Add all DOI records to folder" style="text;html=1;strokeColor=none;fillColor=none;align=center;verticalAlign=left;whiteSpace=wrap;rounded=0;" vertex="1" parent="1">
          <mxGeometry x="539" y="330" width="190" height="30" as="geometry" />
        </mxCell>
        <mxCell id="5RYXw5K6E_C5ybIzZq72-14" value="16. Select all DOI records in folder" style="text;html=1;strokeColor=none;fillColor=none;align=center;verticalAlign=left;whiteSpace=wrap;rounded=0;" vertex="1" parent="1">
          <mxGeometry x="810" y="240" width="310" height="30" as="geometry" />
        </mxCell>
        <mxCell id="5RYXw5K6E_C5ybIzZq72-15" value="17. Export DOI records in JSON format" style="text;html=1;strokeColor=none;fillColor=none;align=center;verticalAlign=left;whiteSpace=wrap;rounded=0;" vertex="1" parent="1">
          <mxGeometry x="840" y="270" width="280" height="30" as="geometry" />
        </mxCell>
        <mxCell id="5RYXw5K6E_C5ybIzZq72-17" value="" style="rounded=1;whiteSpace=wrap;html=1;" vertex="1" parent="1">
          <mxGeometry x="104.75" y="530" width="390" height="170" as="geometry" />
        </mxCell>
        <mxCell id="5RYXw5K6E_C5ybIzZq72-18" value="For each record related to the DOI:" style="text;html=1;strokeColor=none;fillColor=none;align=center;verticalAlign=middle;whiteSpace=wrap;rounded=0;" vertex="1" parent="1">
          <mxGeometry x="70" y="540" width="275" height="30" as="geometry" />
        </mxCell>
        <mxCell id="5RYXw5K6E_C5ybIzZq72-19" value="18. Add to MultimediaObject table GUI, FileURI, &amp;nbsp;ThumbURI, ProductURI, MymeType, ThumbType, Size" style="text;html=1;strokeColor=none;fillColor=none;align=center;verticalAlign=left;whiteSpace=wrap;rounded=0;" vertex="1" parent="1">
          <mxGeometry x="80" y="560" width="389" height="40" as="geometry" />
        </mxCell>
        <mxCell id="5RYXw5K6E_C5ybIzZq72-20" value="19. Add to Records table description, RecordSetID, &amp;nbsp;DataSetID&amp;nbsp;" style="text;html=1;strokeColor=none;fillColor=none;align=center;verticalAlign=left;whiteSpace=wrap;rounded=0;" vertex="1" parent="1">
          <mxGeometry x="90" y="595" width="380" height="40" as="geometry" />
        </mxCell>
        <mxCell id="5RYXw5K6E_C5ybIzZq72-21" value="20. Add to RecordSets table the information required&amp;nbsp;" style="text;html=1;strokeColor=none;fillColor=none;align=center;verticalAlign=left;whiteSpace=wrap;rounded=0;" vertex="1" parent="1">
          <mxGeometry x="90" y="635" width="330" height="40" as="geometry" />
        </mxCell>
        <mxCell id="5RYXw5K6E_C5ybIzZq72-22" value="" style="endArrow=none;dashed=1;html=1;dashPattern=1 3;strokeWidth=2;rounded=0;" edge="1" parent="1">
          <mxGeometry width="50" height="50" relative="1" as="geometry">
            <mxPoint x="760" y="420" as="sourcePoint" />
            <mxPoint x="1100" y="420" as="targetPoint" />
          </mxGeometry>
        </mxCell>
        <mxCell id="5RYXw5K6E_C5ybIzZq72-23" value="" style="endArrow=none;dashed=1;html=1;dashPattern=1 3;strokeWidth=2;rounded=0;" edge="1" parent="1">
          <mxGeometry width="50" height="50" relative="1" as="geometry">
            <mxPoint x="760" y="560" as="sourcePoint" />
            <mxPoint x="1100" y="560" as="targetPoint" />
          </mxGeometry>
        </mxCell>
        <mxCell id="5RYXw5K6E_C5ybIzZq72-24" value="" style="endArrow=none;dashed=1;html=1;dashPattern=1 3;strokeWidth=2;rounded=0;" edge="1" parent="1">
          <mxGeometry width="50" height="50" relative="1" as="geometry">
            <mxPoint x="760" y="560" as="sourcePoint" />
            <mxPoint x="760" y="420" as="targetPoint" />
          </mxGeometry>
        </mxCell>
        <mxCell id="5RYXw5K6E_C5ybIzZq72-25" value="" style="endArrow=none;dashed=1;html=1;dashPattern=1 3;strokeWidth=2;rounded=0;" edge="1" parent="1">
          <mxGeometry width="50" height="50" relative="1" as="geometry">
            <mxPoint x="1100" y="560" as="sourcePoint" />
            <mxPoint x="1100" y="420" as="targetPoint" />
          </mxGeometry>
        </mxCell>
        <mxCell id="5RYXw5K6E_C5ybIzZq72-26" value="MfN &amp;nbsp;Data Portal" style="text;html=1;strokeColor=none;fillColor=none;align=center;verticalAlign=left;whiteSpace=wrap;rounded=0;" vertex="1" parent="1">
          <mxGeometry x="750" y="384" width="120" height="30" as="geometry" />
        </mxCell>
        <mxCell id="5RYXw5K6E_C5ybIzZq72-27" value="21. Check that records are correctly displayed" style="text;html=1;strokeColor=none;fillColor=none;align=center;verticalAlign=left;whiteSpace=wrap;rounded=0;" vertex="1" parent="1">
          <mxGeometry x="760" y="430" width="330" height="40" as="geometry" />
        </mxCell>
        <mxCell id="5RYXw5K6E_C5ybIzZq72-28" value="22. &amp;nbsp; Add to table References publications related to the DOI" style="text;html=1;strokeColor=none;fillColor=none;align=center;verticalAlign=left;whiteSpace=wrap;rounded=0;" vertex="1" parent="1">
          <mxGeometry x="100" y="710" width="330" height="40" as="geometry" />
        </mxCell>
        <mxCell id="5RYXw5K6E_C5ybIzZq72-29" style="edgeStyle=none;rounded=0;orthogonalLoop=1;jettySize=auto;html=1;exitX=0.25;exitY=1;exitDx=0;exitDy=0;" edge="1" parent="1" source="5RYXw5K6E_C5ybIzZq72-7" target="5RYXw5K6E_C5ybIzZq72-7">
          <mxGeometry relative="1" as="geometry" />
        </mxCell>
      </root>
    </mxGraphModel>
  </diagram>
</mxfile>
